<svg xmlns="http://www.w3.org/2000/svg" xmlns:xlink="http://www.w3.org/1999/xlink" width="356" zoomAndPan="magnify" viewBox="0 0 267 77.249999" height="103" preserveAspectRatio="xMidYMid meet" version="1.0"><defs><g/><clipPath id="9e1cc365d8"><path d="M 135 19 L 166 19 L 166 56.796875 L 135 56.796875 Z M 135 19 " clip-rule="nonzero"/></clipPath><clipPath id="afa3c90e5d"><path d="M 133.433594 14 L 166 14 L 166 54 L 133.433594 54 Z M 133.433594 14 " clip-rule="nonzero"/></clipPath><clipPath id="e609135e5e"><rect x="0" width="127" y="0" height="18"/></clipPath></defs><g clip-path="url(#9e1cc365d8)"><path fill="#3389c2" d="M 159.410156 21.3125 C 165.441406 25.226562 167.15625 33.289062 163.238281 39.320312 C 159.882812 44.488281 153.484375 46.484375 147.925781 44.488281 L 144.207031 50.214844 L 141.253906 54.765625 C 140.355469 56.144531 138.496094 56.539062 137.117188 55.644531 C 135.738281 54.75 135.34375 52.886719 136.238281 51.507812 L 139.191406 46.957031 L 142.910156 41.230469 C 138.828125 36.964844 138.046875 30.308594 141.402344 25.140625 C 145.320312 19.109375 153.382812 17.394531 159.410156 21.3125 Z M 137.117188 55.644531 Z M 137.117188 55.644531 " fill-opacity="1" fill-rule="evenodd"/></g><g clip-path="url(#afa3c90e5d)"><path fill="#000000" d="M 157.808594 18.726562 C 160.421875 20.425781 162.105469 23.023438 162.707031 25.851562 C 163.308594 28.683594 162.828125 31.738281 161.128906 34.355469 L 159.402344 33.234375 C 160.792969 31.09375 161.183594 28.59375 160.691406 26.28125 C 160.203125 23.96875 158.828125 21.839844 156.6875 20.453125 Z M 159.304688 16.421875 C 162.558594 18.535156 164.644531 21.765625 165.394531 25.28125 C 166.140625 28.796875 165.546875 32.601562 163.433594 35.851562 C 161.320312 39.105469 158.089844 41.195312 154.574219 41.941406 C 152.324219 42.421875 149.957031 42.351562 147.691406 41.683594 L 144.507812 46.582031 L 143.902344 47.515625 L 140.949219 52.066406 C 140.34375 52.992188 139.417969 53.589844 138.414062 53.804688 C 137.40625 54.019531 136.316406 53.851562 135.390625 53.246094 C 134.460938 52.644531 133.867188 51.71875 133.652344 50.710938 C 133.4375 49.707031 133.605469 48.617188 134.207031 47.6875 L 137.164062 43.140625 L 137.769531 42.203125 L 140.949219 37.304688 C 139.417969 35.507812 138.390625 33.375 137.914062 31.125 C 137.164062 27.605469 137.757812 23.804688 139.871094 20.550781 C 141.984375 17.300781 145.214844 15.210938 148.734375 14.464844 C 152.25 13.714844 156.050781 14.308594 159.304688 16.421875 Z M 145.722656 40.9375 C 145.269531 40.726562 144.828125 40.488281 144.390625 40.226562 L 144.367188 40.214844 C 144.339844 40.195312 144.3125 40.179688 144.28125 40.160156 C 144.242188 40.136719 144.203125 40.109375 144.164062 40.085938 L 144.148438 40.078125 C 144.101562 40.046875 144.050781 40.015625 144.003906 39.984375 C 143.953125 39.953125 143.90625 39.921875 143.859375 39.886719 L 143.84375 39.878906 C 143.804688 39.851562 143.765625 39.828125 143.726562 39.800781 C 143.699219 39.78125 143.671875 39.761719 143.644531 39.742188 L 143.625 39.726562 L 143.621094 39.726562 C 143.207031 39.4375 142.808594 39.128906 142.433594 38.800781 L 139.410156 43.457031 C 139.546875 43.558594 139.683594 43.65625 139.816406 43.75 C 140.167969 44 140.570312 44.269531 141.027344 44.566406 C 141.484375 44.863281 141.894531 45.121094 142.265625 45.339844 C 142.40625 45.421875 142.550781 45.507812 142.699219 45.59375 Z M 163.382812 25.710938 C 162.742188 22.707031 160.960938 19.949219 158.183594 18.148438 C 155.40625 16.34375 152.160156 15.835938 149.160156 16.476562 C 146.160156 17.113281 143.402344 18.894531 141.597656 21.671875 C 139.792969 24.449219 139.289062 27.695312 139.925781 30.695312 C 140.5625 33.695312 142.347656 36.453125 145.125 38.257812 C 147.898438 40.0625 151.144531 40.570312 154.148438 39.929688 C 157.148438 39.292969 159.90625 37.507812 161.707031 34.734375 C 163.511719 31.957031 164.019531 28.710938 163.382812 25.710938 Z M 139.222656 50.945312 L 141.582031 47.316406 C 141.460938 47.246094 141.339844 47.175781 141.21875 47.101562 C 140.734375 46.816406 140.296875 46.546875 139.90625 46.292969 C 139.515625 46.039062 139.089844 45.75 138.632812 45.425781 C 138.515625 45.339844 138.402344 45.257812 138.289062 45.179688 L 135.933594 48.808594 C 135.640625 49.261719 135.558594 49.792969 135.664062 50.285156 C 135.769531 50.777344 136.058594 51.230469 136.511719 51.523438 C 136.960938 51.816406 137.492188 51.898438 137.984375 51.792969 C 138.476562 51.6875 138.929688 51.398438 139.222656 50.945312 Z M 139.222656 50.945312 " fill-opacity="1" fill-rule="nonzero"/></g><g fill="#000000" fill-opacity="1"><g transform="translate(16.329977, 46.023701)"><g><path d="M 18.546875 -6.3125 C 19.609375 -6.3125 20.640625 -6.472656 21.640625 -6.796875 C 22.640625 -7.117188 23.378906 -7.429688 23.859375 -7.734375 L 24.5625 -8.21875 L 27.53125 -2.265625 C 27.4375 -2.191406 27.300781 -2.09375 27.125 -1.96875 C 26.945312 -1.84375 26.539062 -1.613281 25.90625 -1.28125 C 25.28125 -0.945312 24.609375 -0.65625 23.890625 -0.40625 C 23.171875 -0.15625 22.226562 0.0664062 21.0625 0.265625 C 19.90625 0.460938 18.707031 0.5625 17.46875 0.5625 C 14.613281 0.5625 11.910156 -0.132812 9.359375 -1.53125 C 6.804688 -2.9375 4.75 -4.863281 3.1875 -7.3125 C 1.632812 -9.769531 0.859375 -12.421875 0.859375 -15.265625 C 0.859375 -17.421875 1.316406 -19.488281 2.234375 -21.46875 C 3.148438 -23.457031 4.367188 -25.15625 5.890625 -26.5625 C 7.410156 -27.976562 9.1875 -29.109375 11.21875 -29.953125 C 13.25 -30.796875 15.332031 -31.21875 17.46875 -31.21875 C 19.445312 -31.21875 21.269531 -30.976562 22.9375 -30.5 C 24.613281 -30.03125 25.800781 -29.5625 26.5 -29.09375 L 27.53125 -28.390625 L 24.5625 -22.4375 C 24.382812 -22.59375 24.125 -22.773438 23.78125 -22.984375 C 23.4375 -23.191406 22.742188 -23.46875 21.703125 -23.8125 C 20.660156 -24.164062 19.609375 -24.34375 18.546875 -24.34375 C 16.859375 -24.34375 15.34375 -24.066406 14 -23.515625 C 12.664062 -22.972656 11.609375 -22.253906 10.828125 -21.359375 C 10.046875 -20.472656 9.453125 -19.515625 9.046875 -18.484375 C 8.640625 -17.453125 8.4375 -16.40625 8.4375 -15.34375 C 8.4375 -13.019531 9.304688 -10.929688 11.046875 -9.078125 C 12.796875 -7.234375 15.296875 -6.3125 18.546875 -6.3125 Z M 18.546875 -6.3125 "/></g></g></g><g fill="#000000" fill-opacity="1"><g transform="translate(41.628658, 46.023701)"><g><path d="M 3.53125 -2.359375 C 1.75 -4.304688 0.859375 -6.691406 0.859375 -9.515625 C 0.859375 -12.335938 1.75 -14.726562 3.53125 -16.6875 C 5.3125 -18.644531 7.578125 -19.625 10.328125 -19.625 C 12.859375 -19.625 14.941406 -18.828125 16.578125 -17.234375 L 16.578125 -19.0625 L 23.140625 -19.0625 L 23.140625 0 L 16.640625 0 L 16.640625 -2.15625 L 16.578125 -2.15625 C 14.941406 -0.34375 12.859375 0.5625 10.328125 0.5625 C 7.578125 0.5625 5.3125 -0.410156 3.53125 -2.359375 Z M 9.125 -12.75 C 8.269531 -11.90625 7.84375 -10.828125 7.84375 -9.515625 C 7.84375 -8.203125 8.25 -7.128906 9.0625 -6.296875 C 9.882812 -5.460938 10.960938 -5.046875 12.296875 -5.046875 C 13.585938 -5.046875 14.644531 -5.46875 15.46875 -6.3125 C 16.300781 -7.15625 16.71875 -8.222656 16.71875 -9.515625 C 16.71875 -10.828125 16.289062 -11.90625 15.4375 -12.75 C 14.582031 -13.59375 13.535156 -14.015625 12.296875 -14.015625 C 11.035156 -14.015625 9.976562 -13.59375 9.125 -12.75 Z M 9.125 -12.75 "/></g></g></g><g fill="#000000" fill-opacity="1"><g transform="translate(64.326762, 46.023701)"><g><path d="M 2.234375 0 L 2.234375 -19.0625 L 8.8125 -19.0625 L 8.8125 -16.3125 L 8.875 -16.3125 C 8.925781 -16.40625 9.007812 -16.523438 9.125 -16.671875 C 9.238281 -16.828125 9.476562 -17.085938 9.84375 -17.453125 C 10.21875 -17.828125 10.613281 -18.160156 11.03125 -18.453125 C 11.457031 -18.753906 12.003906 -19.023438 12.671875 -19.265625 C 13.335938 -19.503906 14.019531 -19.625 14.71875 -19.625 C 15.4375 -19.625 16.140625 -19.523438 16.828125 -19.328125 C 17.523438 -19.128906 18.035156 -18.929688 18.359375 -18.734375 L 18.875 -18.421875 L 16.125 -12.859375 C 15.3125 -13.546875 14.171875 -13.890625 12.703125 -13.890625 C 11.910156 -13.890625 11.226562 -13.71875 10.65625 -13.375 C 10.09375 -13.03125 9.691406 -12.609375 9.453125 -12.109375 C 9.222656 -11.617188 9.054688 -11.195312 8.953125 -10.84375 C 8.859375 -10.5 8.8125 -10.226562 8.8125 -10.03125 L 8.8125 0 Z M 2.234375 0 "/></g></g></g><g fill="#000000" fill-opacity="1"><g transform="translate(80.15191, 46.023701)"><g><path d="M 21.515625 -8.625 L 7.6875 -8.625 C 7.6875 -7.28125 8.117188 -6.285156 8.984375 -5.640625 C 9.859375 -5.003906 10.800781 -4.6875 11.8125 -4.6875 C 12.875 -4.6875 13.710938 -4.828125 14.328125 -5.109375 C 14.953125 -5.390625 15.660156 -5.953125 16.453125 -6.796875 L 21.21875 -4.421875 C 19.238281 -1.097656 15.941406 0.5625 11.328125 0.5625 C 8.453125 0.5625 5.988281 -0.421875 3.9375 -2.390625 C 1.882812 -4.359375 0.859375 -6.726562 0.859375 -9.5 C 0.859375 -12.28125 1.882812 -14.660156 3.9375 -16.640625 C 5.988281 -18.628906 8.453125 -19.625 11.328125 -19.625 C 14.347656 -19.625 16.804688 -18.75 18.703125 -17 C 20.597656 -15.25 21.546875 -12.753906 21.546875 -9.515625 C 21.546875 -9.066406 21.535156 -8.769531 21.515625 -8.625 Z M 7.875 -12.265625 L 15.125 -12.265625 C 14.976562 -13.253906 14.585938 -14.015625 13.953125 -14.546875 C 13.316406 -15.078125 12.503906 -15.34375 11.515625 -15.34375 C 10.429688 -15.34375 9.566406 -15.054688 8.921875 -14.484375 C 8.273438 -13.921875 7.925781 -13.179688 7.875 -12.265625 Z M 7.875 -12.265625 "/></g></g></g><g fill="#000000" fill-opacity="1"><g transform="translate(99.87792, 46.023701)"><g><path d="M 21.515625 -8.625 L 7.6875 -8.625 C 7.6875 -7.28125 8.117188 -6.285156 8.984375 -5.640625 C 9.859375 -5.003906 10.800781 -4.6875 11.8125 -4.6875 C 12.875 -4.6875 13.710938 -4.828125 14.328125 -5.109375 C 14.953125 -5.390625 15.660156 -5.953125 16.453125 -6.796875 L 21.21875 -4.421875 C 19.238281 -1.097656 15.941406 0.5625 11.328125 0.5625 C 8.453125 0.5625 5.988281 -0.421875 3.9375 -2.390625 C 1.882812 -4.359375 0.859375 -6.726562 0.859375 -9.5 C 0.859375 -12.28125 1.882812 -14.660156 3.9375 -16.640625 C 5.988281 -18.628906 8.453125 -19.625 11.328125 -19.625 C 14.347656 -19.625 16.804688 -18.75 18.703125 -17 C 20.597656 -15.25 21.546875 -12.753906 21.546875 -9.515625 C 21.546875 -9.066406 21.535156 -8.769531 21.515625 -8.625 Z M 7.875 -12.265625 L 15.125 -12.265625 C 14.976562 -13.253906 14.585938 -14.015625 13.953125 -14.546875 C 13.316406 -15.078125 12.503906 -15.34375 11.515625 -15.34375 C 10.429688 -15.34375 9.566406 -15.054688 8.921875 -14.484375 C 8.273438 -13.921875 7.925781 -13.179688 7.875 -12.265625 Z M 7.875 -12.265625 "/></g></g></g><g fill="#000000" fill-opacity="1"><g transform="translate(119.603931, 46.023701)"><g><path d="M 2.234375 0 L 2.234375 -19.0625 L 8.8125 -19.0625 L 8.8125 -16.3125 L 8.875 -16.3125 C 8.925781 -16.40625 9.007812 -16.523438 9.125 -16.671875 C 9.238281 -16.828125 9.476562 -17.085938 9.84375 -17.453125 C 10.21875 -17.828125 10.613281 -18.160156 11.03125 -18.453125 C 11.457031 -18.753906 12.003906 -19.023438 12.671875 -19.265625 C 13.335938 -19.503906 14.019531 -19.625 14.71875 -19.625 C 15.4375 -19.625 16.140625 -19.523438 16.828125 -19.328125 C 17.523438 -19.128906 18.035156 -18.929688 18.359375 -18.734375 L 18.875 -18.421875 L 16.125 -12.859375 C 15.3125 -13.546875 14.171875 -13.890625 12.703125 -13.890625 C 11.910156 -13.890625 11.226562 -13.71875 10.65625 -13.375 C 10.09375 -13.03125 9.691406 -12.609375 9.453125 -12.109375 C 9.222656 -11.617188 9.054688 -11.195312 8.953125 -10.84375 C 8.859375 -10.5 8.8125 -10.226562 8.8125 -10.03125 L 8.8125 0 Z M 2.234375 0 "/></g></g></g><g fill="#000000" fill-opacity="1"><g transform="translate(135.431457, 46.023701)"><g/></g></g><g fill="#000000" fill-opacity="1"><g transform="translate(142.897617, 46.023701)"><g/></g></g><g fill="#000000" fill-opacity="1"><g transform="translate(150.363776, 46.023701)"><g/></g></g><g fill="#000000" fill-opacity="1"><g transform="translate(157.829935, 46.023701)"><g/></g></g><g fill="#000000" fill-opacity="1"><g transform="translate(165.305479, 46.023701)"><g><path d="M 29.953125 -17.171875 L 29.953125 -10.515625 C 29.160156 -6.867188 27.425781 -4.109375 24.75 -2.234375 C 22.070312 -0.367188 19.085938 0.5625 15.796875 0.5625 C 11.660156 0.5625 8.132812 -0.984375 5.21875 -4.078125 C 2.3125 -7.179688 0.859375 -10.925781 0.859375 -15.3125 C 0.859375 -19.769531 2.28125 -23.535156 5.125 -26.609375 C 7.976562 -29.679688 11.535156 -31.21875 15.796875 -31.21875 C 20.773438 -31.21875 24.710938 -29.46875 27.609375 -25.96875 L 23.03125 -20.953125 C 21.394531 -23.578125 19.117188 -24.890625 16.203125 -24.890625 C 14.046875 -24.890625 12.203125 -23.953125 10.671875 -22.078125 C 9.148438 -20.210938 8.390625 -17.957031 8.390625 -15.3125 C 8.390625 -12.707031 9.148438 -10.484375 10.671875 -8.640625 C 12.203125 -6.796875 14.046875 -5.875 16.203125 -5.875 C 17.984375 -5.875 19.535156 -6.410156 20.859375 -7.484375 C 22.179688 -8.566406 22.84375 -10 22.84375 -11.78125 L 15.796875 -11.78125 L 15.796875 -17.171875 Z M 29.953125 -17.171875 "/></g></g></g><g fill="#000000" fill-opacity="1"><g transform="translate(193.427642, 46.023701)"><g><path d="M 3.53125 -2.359375 C 1.75 -4.304688 0.859375 -6.691406 0.859375 -9.515625 C 0.859375 -12.335938 1.75 -14.726562 3.53125 -16.6875 C 5.3125 -18.644531 7.578125 -19.625 10.328125 -19.625 C 12.859375 -19.625 14.941406 -18.828125 16.578125 -17.234375 L 16.578125 -19.0625 L 23.140625 -19.0625 L 23.140625 0 L 16.640625 0 L 16.640625 -2.15625 L 16.578125 -2.15625 C 14.941406 -0.34375 12.859375 0.5625 10.328125 0.5625 C 7.578125 0.5625 5.3125 -0.410156 3.53125 -2.359375 Z M 9.125 -12.75 C 8.269531 -11.90625 7.84375 -10.828125 7.84375 -9.515625 C 7.84375 -8.203125 8.25 -7.128906 9.0625 -6.296875 C 9.882812 -5.460938 10.960938 -5.046875 12.296875 -5.046875 C 13.585938 -5.046875 14.644531 -5.46875 15.46875 -6.3125 C 16.300781 -7.15625 16.71875 -8.222656 16.71875 -9.515625 C 16.71875 -10.828125 16.289062 -11.90625 15.4375 -12.75 C 14.582031 -13.59375 13.535156 -14.015625 12.296875 -14.015625 C 11.035156 -14.015625 9.976562 -13.59375 9.125 -12.75 Z M 9.125 -12.75 "/></g></g></g><g fill="#000000" fill-opacity="1"><g transform="translate(216.125746, 46.023701)"><g><path d="M 3.34375 -19.0625 L 3.34375 -26.15625 L 9.921875 -26.15625 L 9.921875 -19.0625 L 13.9375 -19.0625 L 13.9375 -14.046875 L 9.921875 -14.046875 L 9.921875 -7.984375 C 9.921875 -6.222656 10.414062 -5.34375 11.40625 -5.34375 C 11.65625 -5.34375 11.914062 -5.390625 12.1875 -5.484375 C 12.457031 -5.585938 12.664062 -5.691406 12.8125 -5.796875 L 13.046875 -5.9375 L 14.671875 -0.625 C 13.265625 0.164062 11.65625 0.5625 9.84375 0.5625 C 8.601562 0.5625 7.535156 0.34375 6.640625 -0.09375 C 5.753906 -0.53125 5.082031 -1.113281 4.625 -1.84375 C 4.164062 -2.570312 3.835938 -3.335938 3.640625 -4.140625 C 3.441406 -4.941406 3.34375 -5.800781 3.34375 -6.71875 L 3.34375 -14.046875 L 0.59375 -14.046875 L 0.59375 -19.0625 Z M 3.34375 -19.0625 "/></g></g></g><g fill="#000000" fill-opacity="1"><g transform="translate(228.124336, 46.023701)"><g><path d="M 21.515625 -8.625 L 7.6875 -8.625 C 7.6875 -7.28125 8.117188 -6.285156 8.984375 -5.640625 C 9.859375 -5.003906 10.800781 -4.6875 11.8125 -4.6875 C 12.875 -4.6875 13.710938 -4.828125 14.328125 -5.109375 C 14.953125 -5.390625 15.660156 -5.953125 16.453125 -6.796875 L 21.21875 -4.421875 C 19.238281 -1.097656 15.941406 0.5625 11.328125 0.5625 C 8.453125 0.5625 5.988281 -0.421875 3.9375 -2.390625 C 1.882812 -4.359375 0.859375 -6.726562 0.859375 -9.5 C 0.859375 -12.28125 1.882812 -14.660156 3.9375 -16.640625 C 5.988281 -18.628906 8.453125 -19.625 11.328125 -19.625 C 14.347656 -19.625 16.804688 -18.75 18.703125 -17 C 20.597656 -15.25 21.546875 -12.753906 21.546875 -9.515625 C 21.546875 -9.066406 21.535156 -8.769531 21.515625 -8.625 Z M 7.875 -12.265625 L 15.125 -12.265625 C 14.976562 -13.253906 14.585938 -14.015625 13.953125 -14.546875 C 13.316406 -15.078125 12.503906 -15.34375 11.515625 -15.34375 C 10.429688 -15.34375 9.566406 -15.054688 8.921875 -14.484375 C 8.273438 -13.921875 7.925781 -13.179688 7.875 -12.265625 Z M 7.875 -12.265625 "/></g></g></g><g transform="matrix(1, 0, 0, 1, 72, 55)"><g clip-path="url(#e609135e5e)"><g fill="#000000" fill-opacity="1"><g transform="translate(1.021697, 14.055991)"><g><path d="M 7.28125 -9.265625 L 7.28125 -3.796875 C 7.28125 -3.335938 7.265625 -2.910156 7.234375 -2.515625 C 7.179688 -1.679688 6.878906 -1.019531 6.328125 -0.53125 C 5.785156 -0.0507812 4.988281 0.1875 3.9375 0.1875 C 2.882812 0.1875 2.085938 -0.0820312 1.546875 -0.625 C 1.003906 -1.164062 0.722656 -1.925781 0.703125 -2.90625 L 0.6875 -3.375 L 2.53125 -3.375 L 2.5625 -2.90625 C 2.625 -1.757812 3.117188 -1.1875 4.046875 -1.1875 C 4.867188 -1.1875 5.320312 -1.664062 5.40625 -2.625 C 5.414062 -2.820312 5.421875 -3.148438 5.421875 -3.609375 L 5.421875 -9.265625 Z M 7.28125 -9.265625 "/></g></g></g><g fill="#000000" fill-opacity="1"><g transform="translate(13.488884, 14.055991)"><g><path d="M 5.265625 -9.453125 C 6.671875 -9.453125 7.785156 -9.015625 8.609375 -8.140625 C 9.429688 -7.265625 9.84375 -6.09375 9.84375 -4.625 C 9.84375 -3.164062 9.429688 -2 8.609375 -1.125 C 7.785156 -0.25 6.664062 0.1875 5.25 0.1875 C 3.84375 0.1875 2.726562 -0.25 1.90625 -1.125 C 1.09375 -2 0.6875 -3.164062 0.6875 -4.625 C 0.6875 -6.09375 1.09375 -7.265625 1.90625 -8.140625 C 2.71875 -9.015625 3.835938 -9.453125 5.265625 -9.453125 Z M 3.328125 -2.09375 C 3.796875 -1.488281 4.441406 -1.1875 5.265625 -1.1875 C 6.085938 -1.1875 6.726562 -1.488281 7.1875 -2.09375 C 7.65625 -2.707031 7.890625 -3.550781 7.890625 -4.625 C 7.890625 -5.707031 7.65625 -6.550781 7.1875 -7.15625 C 6.726562 -7.757812 6.085938 -8.0625 5.265625 -8.0625 C 4.429688 -8.0625 3.78125 -7.757812 3.3125 -7.15625 C 2.851562 -6.550781 2.625 -5.707031 2.625 -4.625 C 2.625 -3.539062 2.859375 -2.695312 3.328125 -2.09375 Z M 3.328125 -2.09375 "/></g></g></g><g fill="#000000" fill-opacity="1"><g transform="translate(28.223126, 14.055991)"><g><path d="M 6.609375 -5 C 7.796875 -4.6875 8.390625 -3.941406 8.390625 -2.765625 C 8.390625 -1.972656 8.140625 -1.347656 7.640625 -0.890625 C 7.148438 -0.429688 6.554688 -0.148438 5.859375 -0.046875 C 5.535156 -0.015625 5.101562 0 4.5625 0 L 1.1875 0 L 1.1875 -9.265625 L 4.515625 -9.265625 C 5.003906 -9.265625 5.398438 -9.242188 5.703125 -9.203125 C 6.441406 -9.117188 7.015625 -8.867188 7.421875 -8.453125 C 7.835938 -8.046875 8.046875 -7.53125 8.046875 -6.90625 C 8.046875 -5.957031 7.566406 -5.320312 6.609375 -5 Z M 3.046875 -7.8125 L 3.046875 -5.46875 L 4.4375 -5.46875 C 4.664062 -5.46875 4.882812 -5.476562 5.09375 -5.5 C 5.769531 -5.601562 6.109375 -5.988281 6.109375 -6.65625 C 6.109375 -7.3125 5.757812 -7.679688 5.0625 -7.765625 C 4.84375 -7.796875 4.617188 -7.8125 4.390625 -7.8125 Z M 5.28125 -1.46875 C 5.613281 -1.5 5.890625 -1.625 6.109375 -1.84375 C 6.328125 -2.070312 6.4375 -2.375 6.4375 -2.75 C 6.4375 -3.53125 6.039062 -3.960938 5.25 -4.046875 C 5.019531 -4.066406 4.800781 -4.078125 4.59375 -4.078125 L 3.046875 -4.078125 L 3.046875 -1.46875 L 4.65625 -1.46875 C 4.945312 -1.46875 5.15625 -1.46875 5.28125 -1.46875 Z M 5.28125 -1.46875 "/></g></g></g><g fill="#000000" fill-opacity="1"><g transform="translate(41.508599, 14.055991)"><g/></g></g><g fill="#000000" fill-opacity="1"><g transform="translate(48.583142, 14.055991)"><g><path d="M 4.265625 -9.453125 C 5.328125 -9.453125 6.132812 -9.1875 6.6875 -8.65625 C 7.25 -8.125 7.582031 -7.414062 7.6875 -6.53125 L 5.796875 -6.53125 C 5.742188 -7.019531 5.582031 -7.394531 5.3125 -7.65625 C 5.039062 -7.925781 4.671875 -8.0625 4.203125 -8.0625 C 3.816406 -8.0625 3.503906 -7.96875 3.265625 -7.78125 C 3.023438 -7.59375 2.90625 -7.320312 2.90625 -6.96875 C 2.90625 -6.570312 3.046875 -6.257812 3.328125 -6.03125 C 3.617188 -5.8125 4.132812 -5.617188 4.875 -5.453125 C 5.882812 -5.210938 6.628906 -4.851562 7.109375 -4.375 C 7.585938 -3.90625 7.828125 -3.296875 7.828125 -2.546875 C 7.828125 -1.703125 7.492188 -1.035156 6.828125 -0.546875 C 6.171875 -0.0546875 5.363281 0.1875 4.40625 0.1875 C 3.28125 0.1875 2.378906 -0.0546875 1.703125 -0.546875 C 1.035156 -1.046875 0.65625 -1.773438 0.5625 -2.734375 L 2.453125 -2.734375 C 2.554688 -2.242188 2.78125 -1.863281 3.125 -1.59375 C 3.476562 -1.320312 3.894531 -1.1875 4.375 -1.1875 C 4.800781 -1.1875 5.160156 -1.296875 5.453125 -1.515625 C 5.742188 -1.734375 5.890625 -2.015625 5.890625 -2.359375 C 5.890625 -2.753906 5.75 -3.070312 5.46875 -3.3125 C 5.1875 -3.550781 4.710938 -3.753906 4.046875 -3.921875 C 3.003906 -4.171875 2.226562 -4.503906 1.71875 -4.921875 C 1.207031 -5.335938 0.953125 -5.941406 0.953125 -6.734375 C 0.953125 -7.554688 1.273438 -8.210938 1.921875 -8.703125 C 2.566406 -9.203125 3.347656 -9.453125 4.265625 -9.453125 Z M 4.265625 -9.453125 "/></g></g></g><g fill="#000000" fill-opacity="1"><g transform="translate(61.211309, 14.055991)"><g><path d="M 7.875 -1.46875 L 7.875 0 L 1.1875 0 L 1.1875 -9.265625 L 7.75 -9.265625 L 7.75 -7.8125 L 3.046875 -7.8125 L 3.046875 -5.375 L 7.40625 -5.375 L 7.40625 -3.90625 L 3.046875 -3.90625 L 3.046875 -1.46875 Z M 7.875 -1.46875 "/></g></g></g><g fill="#000000" fill-opacity="1"><g transform="translate(73.946787, 14.055991)"><g><path d="M 7.875 -1.46875 L 7.875 0 L 1.1875 0 L 1.1875 -9.265625 L 7.75 -9.265625 L 7.75 -7.8125 L 3.046875 -7.8125 L 3.046875 -5.375 L 7.40625 -5.375 L 7.40625 -3.90625 L 3.046875 -3.90625 L 3.046875 -1.46875 Z M 7.875 -1.46875 "/></g></g></g><g fill="#000000" fill-opacity="1"><g transform="translate(86.682266, 14.055991)"><g><path d="M 5.15625 -4.828125 L 9.0625 0 L 6.671875 0 L 3.8125 -3.75 L 3.046875 -2.90625 L 3.046875 0 L 1.1875 0 L 1.1875 -9.265625 L 3.046875 -9.265625 L 3.046875 -4.796875 L 7.046875 -9.265625 L 9.25 -9.265625 Z M 5.15625 -4.828125 "/></g></g></g><g fill="#000000" fill-opacity="1"><g transform="translate(100.31652, 14.055991)"><g><path d="M 7.875 -1.46875 L 7.875 0 L 1.1875 0 L 1.1875 -9.265625 L 7.75 -9.265625 L 7.75 -7.8125 L 3.046875 -7.8125 L 3.046875 -5.375 L 7.40625 -5.375 L 7.40625 -3.90625 L 3.046875 -3.90625 L 3.046875 -1.46875 Z M 7.875 -1.46875 "/></g></g></g><g fill="#000000" fill-opacity="1"><g transform="translate(113.051999, 14.055991)"><g><path d="M 7.90625 -2.328125 C 8.019531 -1.234375 8.242188 -0.457031 8.578125 0 L 6.546875 0 C 6.328125 -0.613281 6.175781 -1.300781 6.09375 -2.0625 C 5.96875 -3.113281 5.550781 -3.664062 4.84375 -3.71875 C 4.675781 -3.726562 4.4375 -3.734375 4.125 -3.734375 L 3.046875 -3.734375 L 3.046875 0 L 1.1875 0 L 1.1875 -9.265625 L 4.578125 -9.265625 C 5.085938 -9.265625 5.535156 -9.238281 5.921875 -9.1875 C 6.648438 -9.101562 7.234375 -8.859375 7.671875 -8.453125 C 8.117188 -8.054688 8.34375 -7.484375 8.34375 -6.734375 C 8.34375 -6.148438 8.179688 -5.664062 7.859375 -5.28125 C 7.535156 -4.90625 7.09375 -4.640625 6.53125 -4.484375 C 7.332031 -4.179688 7.789062 -3.460938 7.90625 -2.328125 Z M 3.046875 -5.109375 L 4.328125 -5.109375 C 4.691406 -5.109375 4.941406 -5.113281 5.078125 -5.125 C 5.960938 -5.207031 6.40625 -5.648438 6.40625 -6.453125 C 6.40625 -6.878906 6.296875 -7.191406 6.078125 -7.390625 C 5.867188 -7.585938 5.570312 -7.710938 5.1875 -7.765625 C 4.96875 -7.796875 4.707031 -7.8125 4.40625 -7.8125 L 3.046875 -7.8125 Z M 3.046875 -5.109375 "/></g></g></g></g></g></svg>